<?xml version="1.0" encoding="utf-8"?>
<!-- Generator: Adobe Illustrator 19.1.0, SVG Export Plug-In . SVG Version: 6.00 Build 0)  -->
<svg version="1.1" id="Calque_1" xmlns="http://www.w3.org/2000/svg" xmlns:xlink="http://www.w3.org/1999/xlink" x="0px" y="0px"
	 viewBox="0 0 550.2 600.5" xml:space="preserve">
<style type="text/css">
	.st0{fill:none;stroke:#414141;stroke-width:4;stroke-miterlimit:10;}
</style>
<path class="st0 outline" d="M528.2,49.9c1.1-3.1-0.5-6.5-3.5-7.5C480.5,26.7,443.7,20,393.1,20C182.2,20,11.3,170.2,11.3,355.5
	C11.3,448,54,531.8,123,592.5c3,2.6,6.7,4.2,10.6,4.7l25.6,3.2c2.2,0.3,5.2-0.9,6.6-2.6C200.8,556.2,504.6,114.1,528.2,49.9z"/>
<path class="st0 pulp" d="M383.2,56.2c-46.1,1-68.7,10.2-78.9,16.5c-4.6,2.9-6.7,8.4-5.4,13.7l48.4,190.5c1.1,4.3,6.8,5.2,9.2,1.4
	L476.1,87.9c3.8-6,1.3-13.9-5.1-16.8C456,64.6,426.8,55.3,383.2,56.2z"/>
<path class="st0 pulp" d="M174.6,128.3c-35.2,29.8-47.8,49.1-50,60.9c-1,5.3,1.6,10.7,6.4,13.2L322.6,287c3.9,2.1,8.4-1.5,7.3-5.8L272,89
	c-1.9-6.8-9.4-10.4-15.8-7.5C241.3,88.1,211,97.5,174.6,128.3z"/>
<path class="st0 pulp" d="M106.8,487.8c30.7,34.4,56.1,39.7,67.5,43.3c5.2,1.6,10.8-0.4,13.9-4.8l127.4-189.6c2.6-3.6-0.5-8.6-4.9-7.9
	L83.2,410.1c-7,1-11.4,8.1-9.4,14.8C78.6,440.6,77.7,455.2,106.8,487.8z"/>
<path class="st0 pulp" d="M64.6,293.2c-14,44-8.5,76.3-1.4,86c3.2,4.4,8.9,6.1,14,4.4l230-73.3c4.2-1.4,4.7-7.2,0.7-9.3l-199.2-79.5
	c-6.3-3.3-12.2,0.7-16.3,6.4C84.2,239.3,79.4,246.7,64.6,293.2z"/>
</svg>