<?xml version="1.0" encoding="UTF-8" standalone="no"?>
<svg width="87px" height="111px" viewBox="0 0 87 111" version="1.1" xmlns="http://www.w3.org/2000/svg" xmlns:xlink="http://www.w3.org/1999/xlink">
    <!-- Generator: Sketch 39.1 (31720) - http://www.bohemiancoding.com/sketch -->
    <title>citron</title>
    <desc>Created with Sketch.</desc>
    <defs></defs>
    <g id="Page-1" stroke="none" stroke-width="1" fill="none" fill-rule="evenodd" stroke-opacity="0">
        <g id="Splash" transform="translate(-681.000000, -345.000000)" stroke="#000000" stroke-width="2" fill="#F9E082">
            <g id="Group-3" transform="translate(673.000000, 341.000000)">
                <g id="Group-2" transform="translate(54.172519, 59.746314) rotate(-7.000000) translate(-54.172519, -59.746314) translate(6.672519, 6.246314)">
                    <g id="citron" transform="translate(0.297850, 0.730771)">
                        <path d="M93.6478133,5.64016702 C93.8512957,5.08376 93.56008,4.46412491 93.0060329,4.26551439 C85.0175075,1.40574596 78.3608329,0.18581614 69.2144486,0.18581614 C31.0902604,0.18581614 0.184166275,27.5457179 0.184166275,61.295746 C0.184166275,78.1586723 7.89990745,93.4263916 20.3761035,104.483121 C20.9128251,104.958448 21.5833584,105.25376 22.2918604,105.343767 L26.926982,105.932904 C27.3250996,105.983486 27.8655075,105.77409 28.1239153,105.4639 C34.4539859,97.8687214 89.3757898,17.3328968 93.6478133,5.64016702 Z M67.4305498,6.78359088 C59.099938,6.96062947 55.0063302,8.63989263 53.1620871,9.79213123 C52.3308322,10.3117172 51.9430361,11.3267137 52.1844871,12.2829453 L60.9445498,46.9858575 C61.1425027,47.7702575 62.1746596,47.9339067 62.6018988,47.2491839 L84.2336949,12.5589172 C84.9145498,11.4669312 84.4747773,10.0216119 83.3029106,9.50537333 C80.5979224,8.31333825 75.3188086,6.61585053 67.4305498,6.78359088 Z M29.7037051,19.9156891 C23.3352973,25.3373102 21.0593914,28.8661804 20.6553757,31.0163067 C20.4732737,31.9855558 20.952858,32.9600119 21.8143404,33.4264119 L56.4638463,48.822447 C57.1705051,49.2051628 57.9877522,48.5479628 57.77616,47.767654 L47.3237286,12.7575277 C46.9860659,11.5134225 45.6328345,10.8636611 44.4639169,11.3862225 C41.7648267,12.5927628 36.2844424,14.3136821 29.7037051,19.9156891 Z M17.4532196,85.3959804 C23.007698,91.6629979 27.5996902,92.6229488 29.6669529,93.2857277 C30.5988431,93.5843874 31.615149,93.2210119 32.1776745,92.4135523 L55.2076745,57.8783804 C55.6688275,57.2163453 55.1203098,56.3188786 54.3270235,56.4371523 L13.1889373,71.2581839 C11.9241765,71.4471242 11.123149,72.7247032 11.4969373,73.9583944 C12.3602627,76.806633 12.1936431,79.46184 17.4532196,85.3959804 Z M9.81120392,49.960106 C7.2768902,57.9688709 8.2707098,63.8613551 9.55058431,65.6283937 C10.1274863,66.4250674 11.1600118,66.7374884 12.0867412,66.42172 L53.6767647,53.0631165 C54.4368745,52.8042533 54.5198157,51.7531796 53.8105765,51.3756709 L17.7849843,36.8908639 C16.6540353,36.2890814 15.581698,37.0106253 14.8385451,38.0602112 C13.3644039,40.1426463 12.4918627,41.4890323 9.81120392,49.960106 Z" id="Combined-Shape"></path>
                    </g>
                </g>
            </g>
        </g>
    </g>
</svg>